{"title":"Mothers.Day.2010.BDRip.XVID.AC3.HQ.Hive-CM8","uid":6380966,"size":2056880428,"categoryP":"video","categoryS":"movies","magnet":"?xt=urn:btih:a03446d3bc2064899d72e89297cbce2de60c3d34&amp;dn=Mothers.Day.2010.BDRip.XVID.AC3.HQ.Hive-CM8&amp;tr=udp%3A%2F%2Ftracker.openbittorrent.com%3A80&amp;tr=udp%3A%2F%2Fopen.demonii.com%3A1337&amp;tr=udp%3A%2F%2Ftracker.coppersurfer.tk%3A6969&amp;tr=udp%3A%2F%2Fexodus.desync.com%3A6969","seeders":0,"leechers":0,"uploader":"sceneline","files":5,"time":1305026856,"description":"- &lt;a href=&quot;\nhttp://www.Speed.Cd&quot; rel=&quot;nofollow&quot; target=&quot;_NEW&quot;&gt;\nhttp://www.Speed.Cd&lt;/a&gt; \n       &lt;a href=&quot;\nhttp://www.Speed.Cd&quot; rel=&quot;nofollow&quot; target=&quot;_NEW&quot;&gt;\nhttp://www.Speed.Cd&lt;/a&gt;       the fast  and The Hottest Private Tracker on the net\n\nPlease Seed back to make the speed Faster!!!\n\nand don't forget to visit      ...... http://www.Speed.Cd..........\n-[img]http://img852.imageshack.us/img852/2095/mothersday660.jpg[/img]\n\n[color=blue][size=5][b]Mothers.Day.2010.BDRip.XVID.AC3.HQ.Hive-CM8[/b][/size][/color]\n\n\n[b]Thx Hive\n\nCM8 Doing It Right The First Time :D\n\nSource: German Bluray Rental\n\nHive-CM8 presents:\nA really nice suspense horrorthriller :P\n&quot;still no US Date&quot;\nGerman Bluray is out already\n\nVideo: 720x304 @bitrate 2000 2pass\nAudio: English DTS to AC3 5.1 @384\nSample: yes included[/b]\n\n\n[url]http://www.imdb.com/title/tt1434435/[/url]\n\n&quot;Mother's Day&quot; basically your average thriller about a bunch of people getting home jacked \nand then subsequently submitted to humiliation, torture and emotional agony.\n\n\nGeneral\nComplete name                    : Mothers.Day.2010.BDRip.XVID.AC3.HQ.Hive-CM8.avi\nFormat                           : AVI\nFormat/Info                      : Audio Video Interleave\nFile size                        : 1.91 GiB\nDuration                         : 1h 52mn\nOverall bit rate                 : 2 432 Kbps\nWriting application              : Nandub v1.0rc2\nWriting library                  : Nandub build 1853/release\n\nVideo\nID                               : 0\nFormat                           : MPEG-4 Visual\nFormat profile                   : Advanced Simple@L5\nFormat settings, BVOP            : 1\nFormat settings, QPel            : Yes\nFormat settings, GMC             : No warppoints\nFormat settings, Matrix          : Default (H.263)\nMuxing mode                      : Packed bitstream\nCodec ID                         : XVID\nCodec ID/Hint                    : XviD\nDuration                         : 1h 52mn\nBit rate                         : 2 039 Kbps\nWidth                            : 720 pixels\nHeight                           : 304 pixels\nDisplay aspect ratio             : 2.40:1\nFrame rate                       : 23.976 fps\nColor space                      : YUV\nChroma subsampling               : 4:2:0\nBit depth                        : 8 bits\nScan type                        : Progressive\nCompression mode                 : Lossy\nBits/(Pixel*Frame)               : 0.389\nStream size                      : 1.60 GiB (84%)\nWriting library                  : XviD 1.2.1 (UTC 2008-12-04)\n\nAudio\nID                               : 1\nFormat                           : AC-3\nFormat/Info                      : Audio Coding 3\nMode extension                   : CM (complete main)\nCodec ID                         : 2000\nDuration                         : 1h 52mn\nBit rate mode                    : Constant\nBit rate                         : 384 Kbps\nChannel(s)                       : 6 channels\nChannel positions                : Front: L C R, Side: L R, LFE\nSampling rate                    : 48.0 KHz\nBit depth                        : 16 bits\nCompression mode                 : Lossy\nStream size                      : 308 MiB (16%)\nAlignment                        : Split accross interleaves\nInterleave, duration             : 42 ms (1.00 video frame)\nInterleave, preload duration     : 500 ms\n\n\n\n\nDeborah Ann Woll... Lydia Koffin\nShawn Ashmore... George Barnum\nLisa Marcos... Julie Ross\nPatrick John Flueger... Izaak 'Ike' Koffin (as Patrick Flueger)\nFrank Grillo... Daniel Sohapi\nJaime King... Beth Sohapi\nTony Nappo... Dave Lowe\nRebecca De Mornay... Mother\n\n\nThree brothers on the run from the law head for home, only to discover that their mother \nlost the house in a foreclosure. Mother ingeniously orchestrates her sons' escape, teaching \nthe house's new owners and their guests a few lessons along the way.    \n \n\n\n[img]http://img202.imageshack.us/img202/6493/28125731.png[/img]\n[img]http://img571.imageshack.us/img571/4199/momop.png[/img]\n[img]http://img36.imageshack.us/img36/6028/momomo.png[/img]\n[img]http://img855.imageshack.us/img855/4277/momomomo.png[/img]\n[img]http://img3.imageshack.us/img3/8463/momomomomo.png[/img]\n[img]http://img818.imageshack.us/img818/1020/momomomomomo.png[/img]\n[img]http://img96.imageshack.us/img96/2585/momomomomomomo.png[/img]\n[img]http://img88.imageshack.us/img88/3843/momomomomomomomo.png[/img]\n\n\n\n\nGreetz\n\nViSiON,LUSi,SANTi,MAGNET,THC,T0XiCiNK,LKRG,IMAGiNE,WBZ,FLAWL3SS,NOVA\nVik,OneTwo,Rapeseed,D2U,SAFC,goldadvance,MEMORY100,KaN1vE,Unevano,Mr Hive\nand all P2P groups \nGreat Work Guys :D\n\n&lt;a class=&quot;__cf_email__&quot; href=&quot;/cdn-cgi/l/email-protection&quot; data-cfemail=&quot;b5f6f88df5ddc0c6ddd8d4dcd99bd6dad8&quot;&gt;[email&amp;#160;protected]&lt;/a&gt;&lt;script cf-hash='f9e31' type=&quot;text/javascript&quot;&gt;\n/* &lt;![CDATA[ */!function(){try{var t=&quot;currentScript&quot;in document?document.currentScript:function(){for(var t=document.getElementsByTagName(&quot;script&quot;),e=t.length;e--;)if(t[e].getAttribute(&quot;cf-hash&quot;))return t[e]}();if(t&amp;&amp;t.previousSibling){var e,r,n,i,c=t.previousSibling,a=c.getAttribute(&quot;data-cfemail&quot;);if(a){for(e=&quot;&quot;,r=parseInt(a.substr(0,2),16),n=2;a.length-n;n+=2)i=parseInt(a.substr(n,2),16)^r,e+=String.fromCharCode(i);e=document.createTextNode(e),c.parentNode.replaceChild(e,c)}}}catch(u){}}();/* ]]&gt; */&lt;/script&gt;","torrent":{"xt":"urn:btih:a03446d3bc2064899d72e89297cbce2de60c3d34","amp;dn":"Mothers.Day.2010.BDRip.XVID.AC3.HQ.Hive-CM8","amp;tr":["udp%3A%2F%2Ftracker.openbittorrent.com%3A80","udp%3A%2F%2Fopen.demonii.com%3A1337","udp%3A%2F%2Ftracker.coppersurfer.tk%3A6969","udp%3A%2F%2Fexodus.desync.com%3A6969"],"infoHash":"a03446d3bc2064899d72e89297cbce2de60c3d34","infoHashBuffer":{"type":"Buffer","data":[160,52,70,211,188,32,100,137,157,114,232,146,151,203,206,45,230,12,61,52]},"announce":[],"urlList":[]}}